<?xml version="1.0" encoding="utf-8"?>
<!-- Generator: Adobe Illustrator 21.1.0, SVG Export Plug-In . SVG Version: 6.00 Build 0)  -->
<svg version="1.1" id="Layer_1" xmlns="http://www.w3.org/2000/svg" xmlns:xlink="http://www.w3.org/1999/xlink" x="0px" y="0px"
	 viewBox="0 0 402 95" style="enable-background:new 0 0 402 95;" xml:space="preserve">
<style type="text/css">
	.st0{fill:#29ABE2;}
	.st1{fill:#FFFFFF;}
	.st2{stroke:#000000;stroke-width:2;stroke-miterlimit:10;}
	.st3{font-family:'Trench-Thin';}
	.st4{font-size:54.7832px;}
	.st5{letter-spacing:-2;}
	.st6{letter-spacing:-1;}
</style>
<g>
	<path class="st0" d="M366.4,24c0.1,0,0.2,0.1,0.3,0.1c0.8,0.2,1.5,0.6,1.9,1.4c0.1,0.1,0.1,0.2,0.3,0.1c1.5-0.8,3.2,0.1,3.4,1.7
		c0,0,0,0.1,0,0.1c0.5-0.3,0.9-0.3,1.4-0.1c0.3,0.1,0.6,0.4,0.8,0.7c0.2,0.4,0.3,0.9,0.1,1.3c-0.1,0.5-0.5,0.8-0.9,1
		c0,0.1,0.1,0.1,0.1,0.1c1.2,1.3,1.8,2.9,1.9,4.7c0.2,3.8-2.7,6.8-5.7,7.4c-3.4,0.7-6.7-0.8-8.3-3.8c-0.3-0.6-0.5-1.2-0.6-1.8
		c0-0.2-0.1-0.3-0.2-0.4c-0.5-0.4-1.1-0.8-1.6-1.2c0,0-0.1-0.1-0.1-0.1c0.3,0,0.6,0,0.9-0.1c0.3,0,0.5-0.1,0.7-0.1
		c0.2,0,0.2-0.1,0.1-0.3c-1.2,0.3-2.4,0.2-3.6,0.1c0.3-0.1,0.6-0.3,0.9-0.4c1-0.5,2-1,3-1.5c0.1-0.1,0.2-0.2,0.3-0.3
		c0.5-1.4,1.3-2.5,2.5-3.3c0,0,0.1-0.1,0.2-0.2c-0.1-0.1-0.2-0.1-0.3-0.2c-1.2-1.3-1.1-3.3,0.2-4.4c0.4-0.3,0.9-0.5,1.4-0.6
		c0.1,0,0.1,0,0.2-0.1C366,24,366.2,24,366.4,24z M368.2,28.8c-3.5,0-6.3,2.8-6.3,6.3c0,3.5,2.8,6.3,6.2,6.3c3.5,0,6.3-2.8,6.4-6.2
		C374.6,31.8,371.8,28.8,368.2,28.8z"/>
	<path class="st0" d="M363.7,52.8c0-1.4-0.1-2.8-0.3-4.1c-0.2-1.1-0.4-2.2-0.9-3.2c-0.2-0.5-0.4-1.1-0.4-1.7c0-0.2,0-0.3,0-0.5
		c0.1-0.6,0.6-1,1.2-0.8c0.5,0.1,0.9,0.3,1.4,0.5c2.1,0.7,4.2,0.9,6.4,0.2c2.5-0.8,4.3-2.5,5.3-5c0.4-1.1,0.5-2.3,0.4-3.5
		c-0.1-1.2-0.4-2.4-0.8-3.5c-0.2-0.4-0.3-0.9-0.2-1.3c0-0.4,0.2-0.7,0.4-1c0.8-1,1.9-1.6,3.1-1.9c1.8-0.6,3.5-0.4,5.2,0.5
		c1.4,0.7,2.5,1.7,3.4,2.9c0.6,0.9,1,1.9,1.1,2.9c0.2,1.7-0.1,3.3-0.6,4.9c-0.5,1.6-1.1,3.2-1.8,4.7c-0.5,1.1-0.9,2.1-1.3,3.2
		c-0.4,1-0.6,2.1-0.7,3.2c-0.2,1.5-0.2,3.1-0.2,4.6c0,1,0,2.1-0.3,3.1c-0.1,0.3-0.2,0.6-0.3,0.9c-0.3,0.6-0.8,0.9-1.5,1
		c-1.2,0.1-2.2-0.3-3-1.3c-0.5-0.7-0.8-1.4-1.1-2.2c-0.4-0.9-0.7-1.7-1.1-2.6c-0.3-0.6-0.7-1.2-1.3-1.6c-1.3-0.9-3-0.7-4.1,0.6
		c-0.5,0.7-0.9,1.4-1.2,2.2c-0.4,0.9-0.7,1.7-1.1,2.6c-0.3,0.7-0.8,1.3-1.4,1.7c-0.6,0.4-1.3,0.5-2,0.5c-1-0.1-1.6-0.6-1.9-1.5
		c-0.2-0.6-0.3-1.2-0.3-1.9c0-0.5-0.1-1-0.1-1.4C363.7,53.7,363.7,53.2,363.7,52.8z M377.6,35.9c0,0.2,0,0.5,0,0.7
		c0,0.2,0,0.4-0.1,0.6c-0.2,1.8-1,3.4-2.3,4.7c-2,2-4.5,2.8-7.3,2.5c-1.2-0.1-2.4-0.4-3.6-0.8c-0.3-0.1-0.6-0.2-0.8-0.2
		c-0.4,0-0.5,0.2-0.5,0.5c0.1,0.4,0.3,0.8,0.4,1.2c0.4,1.1,0.8,2.1,1,3.2c0.3,1.3,0.3,2.6,0.3,3.9c0,1,0,2.1,0.2,3.1
		c0.1,0.5,0.2,0.9,0.4,1.3c0.3,0.6,0.9,0.8,1.5,0.6c0.4-0.1,0.6-0.4,0.8-0.7c0.3-0.5,0.5-1,0.7-1.5c0.4-0.9,0.7-1.9,1.3-2.7
		c0.6-1,1.4-1.7,2.5-2.1c0.8-0.3,1.7-0.3,2.6-0.2c1.5,0.1,2.6,0.8,3.4,2.1c0.5,0.7,0.7,1.6,1,2.4c0.2,0.6,0.4,1.3,0.8,1.9
		c0.3,0.5,0.7,0.8,1.3,0.9c0.7,0.1,1.1-0.1,1.4-0.8c0.1-0.2,0.1-0.3,0.1-0.5c0.2-0.8,0.2-1.7,0.2-2.6c0-1.4,0.1-2.7,0.2-4.1
		c0.1-1.1,0.3-2.2,0.7-3.2c0.4-1.1,0.9-2.2,1.4-3.3c0.7-1.7,1.5-3.4,1.9-5.2c0.4-1.5,0.7-3,0.5-4.6c-0.1-1.1-0.5-2.1-1.1-2.9
		c-0.6-0.8-1.4-1.5-2.2-2c-1.1-0.7-2.3-1.1-3.6-1c-1.5,0.1-2.7,0.7-3.7,1.7c-0.4,0.4-0.7,0.9-0.6,1.6c0.1,0.3,0.1,0.6,0.2,0.8
		C377.3,32.9,377.7,34.3,377.6,35.9z"/>
	<path class="st1" d="M368.2,28.8c3.6,0,6.4,3,6.3,6.4c-0.1,3.3-2.9,6.2-6.4,6.2c-3.4,0-6.2-2.9-6.2-6.3
		C361.9,31.6,364.7,28.8,368.2,28.8z M365,33.4c0.8-0.5,1.4-0.5,1.8,0.1c0.4,0.5,0.3,1.2-0.1,1.6c-0.3,0.3-0.7,0.4-1.1,0.3
		c-0.4-0.1-0.6-0.4-0.9-0.8c0,1.1,1,2.1,2.1,2.1c1.3,0.1,2.4-0.8,2.5-2.1c0.1-1.2-0.8-2.3-1.9-2.5C366.4,32,365.2,32.6,365,33.4z"/>
	<path class="st1" d="M377.6,35.9c0-1.5-0.3-3-0.8-4.5c-0.1-0.3-0.2-0.5-0.2-0.8c-0.1-0.6,0.2-1.2,0.6-1.6c1-1,2.3-1.6,3.7-1.7
		c1.3-0.1,2.5,0.3,3.6,1c0.9,0.5,1.6,1.2,2.2,2c0.7,0.8,1,1.8,1.1,2.9c0.2,1.6-0.1,3.1-0.5,4.6c-0.5,1.8-1.2,3.5-1.9,5.2
		c-0.5,1.1-1,2.2-1.4,3.3c-0.4,1-0.6,2.1-0.7,3.2c-0.2,1.4-0.2,2.7-0.2,4.1c0,0.9,0,1.7-0.2,2.6c0,0.2-0.1,0.3-0.1,0.5
		c-0.3,0.7-0.7,0.9-1.4,0.8c-0.6-0.1-1-0.4-1.3-0.9c-0.4-0.6-0.6-1.2-0.8-1.9c-0.3-0.8-0.6-1.6-1-2.4c-0.8-1.3-1.9-1.9-3.4-2.1
		c-0.9-0.1-1.7,0-2.6,0.2c-1.1,0.4-1.9,1.1-2.5,2.1c-0.5,0.9-0.9,1.8-1.3,2.7c-0.2,0.5-0.5,1-0.7,1.5c-0.2,0.3-0.4,0.6-0.8,0.7
		c-0.6,0.2-1.2-0.1-1.5-0.6c-0.2-0.4-0.3-0.9-0.4-1.3c-0.1-1-0.1-2.1-0.2-3.1c0-1.3-0.1-2.6-0.3-3.9c-0.2-1.1-0.6-2.2-1-3.2
		c-0.2-0.4-0.3-0.8-0.4-1.2c-0.1-0.3,0.1-0.6,0.5-0.5c0.3,0,0.6,0.1,0.8,0.2c1.2,0.4,2.4,0.7,3.6,0.8c2.8,0.3,5.3-0.5,7.3-2.5
		c1.3-1.3,2.1-2.9,2.3-4.7c0-0.2,0-0.4,0.1-0.6C377.6,36.3,377.6,36.1,377.6,35.9z"/>
	<path class="st0" d="M365,33.4c0.2-0.8,1.4-1.4,2.5-1.3c1.2,0.2,2,1.3,1.9,2.5c-0.1,1.3-1.2,2.2-2.5,2.1c-1.1-0.1-2.1-1-2.1-2.1
		c0.2,0.4,0.5,0.7,0.9,0.8c0.4,0.1,0.8,0,1.1-0.3c0.4-0.4,0.5-1.1,0.1-1.6C366.4,33,365.9,32.9,365,33.4z"/>
</g>
<text transform="matrix(1 0 0 1 14.0186 58.0566)"><tspan x="0" y="0" class="st2 st3 st4">B</tspan><tspan x="31.1" y="0" class="st2 st3 st4 st5">l</tspan><tspan x="37" y="0" class="st2 st3 st4">ue </tspan><tspan x="101.6" y="0" class="st2 st3 st4 st6">H</tspan><tspan x="132" y="0" class="st2 st3 st4">e</tspan><tspan x="159.9" y="0" class="st2 st3 st4">n </tspan><tspan x="199.7" y="0" class="st2 st3 st4">D</tspan><tspan x="230.6" y="0" class="st2 st3 st4 st6">e</tspan><tspan x="258.4" y="0" class="st2 st3 st4 st6">n</tspan><tspan x="286.3" y="0" class="st2 st3 st4 st6">t</tspan><tspan x="302.7" y="0" class="st2 st3 st4">al</tspan></text>
</svg>
