<?xml version="1.0" encoding="utf-8"?>
<!-- Generator: Adobe Illustrator 21.1.0, SVG Export Plug-In . SVG Version: 6.00 Build 0)  -->
<svg version="1.1" id="Layer_1" xmlns="http://www.w3.org/2000/svg" xmlns:xlink="http://www.w3.org/1999/xlink" x="0px" y="0px"
	 viewBox="0 0 360 360" style="enable-background:new 0 0 360 360;" xml:space="preserve">
<style type="text/css">
	.st0{fill:#29ABE2;}
	.st1{fill:#FFFFFF;}
	.st2{stroke:#000000;stroke-width:2;stroke-miterlimit:10;}
	.st3{font-family:'Trench-Thin';}
	.st4{font-size:54.7832px;}
	.st5{letter-spacing:-2;}
	.st6{letter-spacing:-1;}
</style>
<g>
	<path class="st0" d="M130.1,34.1c0.8,0.2,1.5,0.5,2.3,0.6c6,1.3,10.6,4.6,13.7,9.8c0.6,1,1,1.1,2,0.6c10.8-5.5,22.5,0.5,24.5,12.4
		c0,0.3,0.1,0.5,0.3,0.9c3.3-1.8,6.7-2.2,10.2-0.9c2.4,0.9,4.3,2.5,5.6,4.8c1.7,3,2,6.1,1,9.4c-1.1,3.2-3.3,5.4-6.4,6.9
		c0.3,0.4,0.5,0.7,0.8,1c8.5,9.6,12.9,20.7,13.4,33.5c1.2,27-19.3,48.2-40.3,52.8c-23.9,5.3-47.7-5.5-58.9-27.1
		c-2.1-4.1-3.6-8.4-4.6-13c-0.2-1.1-0.8-1.9-1.7-2.5c-3.9-2.7-7.7-5.4-11.5-8.2c-0.2-0.2-0.5-0.4-0.9-0.8c2.3-0.2,4.4-0.3,6.4-0.5
		c1.8-0.2,3.5-0.6,5.3-0.8c1.2-0.2,1.4-0.9,1-2c-8.4,2-16.9,1.4-25.5,1c2-1,4-2.1,6.1-3.1c7-3.5,14-7.1,21-10.6
		c1-0.5,1.5-1.1,1.9-2.1c3.6-9.6,9.5-17.6,17.8-23.7c0.3-0.2,0.6-0.5,1.2-1.1c-0.7-0.5-1.4-0.9-1.9-1.5c-8.8-9-8-23.7,1.8-31.4
		c2.9-2.2,6.2-3.5,9.7-4.2c0.5-0.1,1.1-0.3,1.6-0.5C127.4,34.1,128.7,34.1,130.1,34.1z M143,68.5c-24.7,0-44.8,20-44.8,44.5
		c0,24.6,19.9,44.8,44.1,45c25,0.2,44.8-19.9,45.4-43.7C188.3,89.7,168.5,68.5,143,68.5z"/>
	<path class="st0" d="M111.4,238.5c-0.2-9.8-0.5-19.6-1.9-29.3c-1.1-7.8-3.2-15.3-6.1-22.6c-1.5-3.8-2.6-7.7-2.8-11.8
		c0-1.1,0-2.2,0.2-3.2c0.7-4.4,4.1-6.8,8.5-5.7c3.4,0.9,6.6,2.2,9.9,3.3c15,5.2,30.1,6.4,45.3,1.5c18-5.8,30.7-17.5,37.3-35.4
		c2.9-7.9,3.4-16.2,2.8-24.6c-0.6-8.6-3.1-16.8-6-24.8c-1.1-3.1-1.9-6.2-1.7-9.5c0.2-2.7,1.2-5,2.9-7.1c5.9-6.9,13.4-11.2,21.9-13.8
		c12.8-4,25.1-2.6,36.9,3.6c9.7,5,17.9,11.8,24.4,20.6c4.6,6.2,6.9,13.2,7.8,20.9c1.3,12-0.9,23.6-4.2,35
		c-3.3,11.5-8,22.6-12.7,33.6c-3.2,7.5-6.5,14.9-9.5,22.5c-2.9,7.4-4,15.2-4.8,23c-1.1,10.9-1.1,21.9-1.3,32.8
		c-0.1,7.4-0.3,14.7-2.1,21.9c-0.6,2.2-1.4,4.3-2.4,6.3c-2.2,4.2-5.8,6.6-10.6,7.2c-8.9,1.1-15.9-2.1-21.4-9.1
		c-3.6-4.6-5.9-10-8.1-15.3c-2.6-6.1-5.1-12.2-7.9-18.2c-2.1-4.4-4.9-8.4-9-11.2c-9.4-6.6-21.6-4.8-28.9,4.4
		c-3.8,4.7-6.2,10.2-8.5,15.6c-2.6,6.2-5.1,12.4-8,18.5c-2.3,4.9-5.5,9.2-10.2,12.2c-4.3,2.7-9,3.8-14,3.4
		c-6.8-0.6-11-4.5-13.2-10.8c-1.5-4.3-2-8.7-2.3-13.2c-0.3-3.4-0.4-6.9-0.5-10.3C111.3,245.4,111.4,241.9,111.4,238.5z M210,118.5
		c0,1.6,0.1,3.3,0,4.9c-0.1,1.4-0.2,2.7-0.4,4.1c-1.6,13.1-7.2,24.4-16.6,33.6C178.5,175.2,161,180.9,141,179
		c-8.8-0.8-17.4-2.9-25.8-5.9c-1.9-0.7-4-1.2-6-1.5c-2.5-0.3-3.9,1.3-3.2,3.7c0.8,3,1.9,5.9,3,8.8c3.1,7.5,5.7,15.1,7.3,23
		c1.9,9.2,2.1,18.6,2.3,27.9c0.2,7.4,0.2,14.8,1.2,22.1c0.5,3.3,1.2,6.6,2.9,9.6c2.3,3.9,6.4,5.6,10.7,4.4c2.7-0.8,4.6-2.7,5.8-5.1
		c1.8-3.4,3.5-7,5.1-10.6c2.8-6.6,5.3-13.3,9.2-19.3c4.4-6.8,10.1-12,17.9-14.6c5.9-2,12-2.3,18.1-1.7c10.3,1,18.4,5.6,23.9,14.6
		c3.2,5.3,5.2,11.1,7.2,16.9c1.6,4.6,3.1,9.2,5.8,13.4c2.3,3.5,5.3,5.8,9.5,6.6c5,0.9,8.1-0.8,10-5.5c0.4-1.1,0.7-2.2,1-3.3
		c1.3-6,1.4-12.1,1.6-18.2c0.3-9.7,0.6-19.3,1.7-29c1-7.8,2.3-15.6,5.2-23c3.1-7.8,6.5-15.4,9.9-23.1c5.2-12,10.3-24,13.8-36.6
		c3-10.8,5-21.7,3.7-32.9c-0.8-7.6-3.3-14.6-8.2-20.7c-4.6-5.6-9.9-10.4-16-14.2c-7.8-4.9-16.1-7.7-25.4-7.1
		c-10.3,0.6-19.2,4.7-26.5,11.9c-3.1,3.1-5.2,6.6-4.3,11.3c0.4,2,0.9,4,1.6,5.9C207.9,97.1,210.1,107.6,210,118.5z"/>
	<path class="st1" d="M143,68.5c25.4,0,45.3,21.2,44.7,45.8c-0.6,23.8-20.4,43.9-45.4,43.7c-24.2-0.2-44.1-20.4-44.1-45
		C98.2,88.5,118.3,68.5,143,68.5z M120.6,101.2c5.8-3.6,9.8-3.4,12.9,0.6c2.6,3.4,2.2,8.2-1,11.1c-2.2,1.9-4.7,2.7-7.5,2
		c-2.8-0.7-4.5-2.8-6.1-5.3c0.1,7.7,7.2,14.8,15.1,15.2c9.3,0.4,16.8-5.9,17.7-15c0.8-8.3-5.3-16.3-13.6-17.6
		C130.5,91,121.8,95.5,120.6,101.2z"/>
	<path class="st1" d="M210,118.5c0.1-10.9-2.1-21.4-5.8-31.6c-0.7-1.9-1.2-3.9-1.6-5.9c-0.9-4.6,1.2-8.2,4.3-11.3
		c7.3-7.3,16.1-11.3,26.5-11.9c9.3-0.5,17.7,2.2,25.4,7.1c6.1,3.9,11.4,8.6,16,14.2c4.9,6,7.3,13,8.2,20.7
		c1.2,11.2-0.7,22.1-3.7,32.9c-3.5,12.6-8.6,24.6-13.8,36.6c-3.4,7.7-6.8,15.3-9.9,23.1c-2.9,7.4-4.2,15.1-5.2,23
		c-1.2,9.6-1.4,19.3-1.7,29c-0.2,6.1-0.3,12.2-1.6,18.2c-0.2,1.1-0.6,2.2-1,3.3c-1.8,4.7-5,6.4-10,5.5c-4.2-0.8-7.2-3.1-9.5-6.6
		c-2.7-4.1-4.2-8.8-5.8-13.4c-2-5.8-4-11.7-7.2-16.9c-5.5-9-13.6-13.6-23.9-14.6c-6.2-0.6-12.2-0.2-18.1,1.7
		c-7.8,2.6-13.5,7.8-17.9,14.6c-3.9,6-6.4,12.8-9.2,19.3c-1.5,3.6-3.2,7.1-5.1,10.6c-1.3,2.4-3.1,4.3-5.8,5.1
		c-4.3,1.2-8.4-0.5-10.7-4.4c-1.7-3-2.4-6.2-2.9-9.6c-1-7.3-1-14.7-1.2-22.1c-0.3-9.3-0.4-18.7-2.3-27.9c-1.7-7.9-4.3-15.5-7.3-23
		c-1.2-2.9-2.2-5.8-3-8.8c-0.7-2.4,0.7-4,3.2-3.7c2,0.2,4.1,0.8,6,1.5c8.4,2.9,16.9,5,25.8,5.9c20,1.9,37.5-3.7,51.9-17.9
		c9.4-9.2,14.9-20.5,16.6-33.6c0.2-1.3,0.3-2.7,0.4-4.1C210,121.8,210,120.1,210,118.5z"/>
	<path class="st0" d="M120.6,101.2c1.3-5.7,10-10.3,17.4-9.1c8.3,1.3,14.5,9.3,13.6,17.6c-0.9,9.2-8.3,15.5-17.7,15
		c-7.8-0.4-15-7.4-15.1-15.2c1.5,2.6,3.2,4.7,6.1,5.3c2.9,0.7,5.4-0.1,7.5-2c3.2-2.9,3.6-7.7,1-11.1
		C130.4,97.8,126.4,97.6,120.6,101.2z"/>
</g>
<text transform="matrix(1 0 0 1 14.0186 326.0566)"><tspan x="0" y="0" class="st2 st3 st4">B</tspan><tspan x="31.1" y="0" class="st2 st3 st4 st5">l</tspan><tspan x="37" y="0" class="st2 st3 st4">ue </tspan><tspan x="101.6" y="0" class="st2 st3 st4 st6">H</tspan><tspan x="132" y="0" class="st2 st3 st4">e</tspan><tspan x="159.9" y="0" class="st2 st3 st4">n </tspan><tspan x="199.7" y="0" class="st2 st3 st4">D</tspan><tspan x="230.6" y="0" class="st2 st3 st4 st6">e</tspan><tspan x="258.4" y="0" class="st2 st3 st4 st6">n</tspan><tspan x="286.3" y="0" class="st2 st3 st4 st6">t</tspan><tspan x="302.7" y="0" class="st2 st3 st4">al</tspan></text>
</svg>
