<?xml version="1.0" encoding="utf-8"?>
<!-- Generator: Adobe Illustrator 21.1.0, SVG Export Plug-In . SVG Version: 6.00 Build 0)  -->
<svg version="1.1" id="Layer_1" xmlns="http://www.w3.org/2000/svg" xmlns:xlink="http://www.w3.org/1999/xlink" x="0px" y="0px"
	 viewBox="0 0 360 360" style="enable-background:new 0 0 360 360;" xml:space="preserve">
<style type="text/css">
	.st0{fill:#29ABE2;}
	.st1{fill:#FFFFFF;}
</style>
<g>
	<path class="st0" d="M321.1,119.3c-0.1,1.3-0.3,2.5-0.4,3.8c-1.2,14.9-5.3,29-10.3,43c-4.8,13.3-10.7,26.2-16.4,39.1
		c-3.8,8.5-7.4,17.1-9.5,26.2c-2.2,9.7-3.4,19.5-3.8,29.4c-0.4,10.1-0.5,20.3-0.8,30.4c-0.2,8.3-0.3,16.7-2.2,24.9
		c-0.7,3-1.6,6-2.9,8.8c-3,6.7-8.5,10-15.7,10.3c-11.1,0.5-19.6-4.2-25.8-13.2c-3.8-5.5-6.4-11.6-9-17.7c-3.1-7.3-6.1-14.6-9.4-21.8
		c-2.4-5.2-5.6-9.9-10.1-13.6c-10.8-9-26.8-7.8-36.2,2.7c-4.7,5.2-7.9,11.4-10.6,17.9c-3.2,7.4-6.1,14.9-9.4,22.3
		c-2.4,5.4-5.4,10.6-9.5,14.9c-7.1,7.4-15.9,9.9-25.8,8c-6.4-1.2-10.3-5.5-12.6-11.3c-2.1-5-3.1-10.4-3.3-15.8
		c-0.5-10.7-0.8-21.4-1-32.1c-0.3-13-0.9-26-3.3-38.8c-1.4-7.2-3.5-14.1-6.1-20.9c-2-5.1-3.6-10.3-3.8-15.8c0-1.8,0.1-3.7,0.6-5.4
		c1.3-4.6,5.4-6.9,10.4-5.6c3.9,1.1,7.7,2.5,11.6,3.9c11.6,4.3,23.6,6.3,35.9,5.7c26.8-1.3,47.9-12.8,62.1-35.9
		c6.8-11,9.6-23.2,9.4-36.2c-0.2-12.7-3-24.8-7.4-36.7c-1.3-3.5-2.3-7-2.4-10.8c-0.1-4,1.1-7.4,3.6-10.5c5.2-6.1,11.6-10.6,18.8-14
		c10.9-5.2,22.4-7.1,34.4-5.4c8.3,1.2,16,4,23.2,8.2c10,5.8,18.6,13.3,25.9,22.2c6.4,7.8,9.7,16.9,11,26.8c0.3,2.1,0.4,4.2,0.5,6.3
		c0,0.2,0.1,0.4,0.2,0.5C321.1,115.3,321.1,117.3,321.1,119.3z M219.7,130.2c0,0.7,0,1.4,0,2.2c0,0.7,0,1.4-0.1,2.2
		c-0.5,11-3,21.5-8.3,31.2c-10.4,19-26.4,31.1-47,37.3c-12.8,3.9-25.8,3.1-38.9,1.3c-8-1.1-15.7-3.5-23.4-6.1
		c-2.5-0.9-5.1-1.6-7.7-2c-3.1-0.6-4.9,1.3-4.5,4.4c0.1,0.9,0.3,1.7,0.6,2.6c1.7,4.6,3.5,9.1,5.3,13.6c4.7,12,8.2,24.2,9.1,37.1
		c0.7,10.5,0.9,21,1.3,31.5c0.2,6.8,0.5,13.6,1.8,20.3c0.7,3.8,1.7,7.5,4.1,10.6c4,5.4,11.7,6.2,16.7,1.6c1.4-1.3,2.7-2.9,3.6-4.6
		c2.1-4.1,4.1-8.2,5.8-12.5c3-7.1,5.7-14.4,9.6-21.1c4.1-7,9.1-13.1,16.1-17.4c8.6-5.3,18.1-6.7,28-6.1c6.5,0.4,12.8,1.7,18.6,4.9
		c7.6,4.1,12.8,10.5,16.2,18.2c2.8,6.2,5,12.7,7.4,19.1c1.8,4.8,3.5,9.6,6.2,14c3,4.6,6.9,7.6,12.5,8.4c5.9,0.9,9.8-1.2,11.8-6.9
		c1-2.8,1.8-5.8,2.1-8.8c0.7-8,1.1-16,1.4-24c0.4-10.6,0.8-21.2,2.2-31.7c1.5-11.5,4.1-22.8,8.7-33.5c4.5-10.5,9.3-21,13.8-31.5
		c6.1-14.1,11.6-28.4,15.1-43.4c2.8-11.8,4.4-23.7,2.7-35.9c-1.3-9.1-4.3-17.5-10.3-24.7c-6.5-7.8-14.1-14.5-23.1-19.4
		c-13.4-7.3-27.4-9.2-42-4.1c-8.5,3-15.9,7.7-21.7,14.8c-2.9,3.5-4,7.5-3,12c0.6,2.8,1.4,5.5,2.3,8.2
		C217.2,104.3,219.8,117,219.7,130.2z"/>
	<path class="st0" d="M100.8,71.8c-8.6-7.8-11.9-17.2-8.5-28.3c3.1-10.2,10.3-16.3,20.7-18.2c10.2-1.9,21.9,2.7,27.9,14
		c12.9-8.5,30.8-0.5,32.3,16c4.5-2.6,9.2-3.1,14-0.8c3.2,1.5,5.4,3.9,6.8,7.2c2.6,6.3,0.6,14.8-7.8,18.6c0.2,0.2,0.3,0.4,0.5,0.6
		c9.6,10.5,15.3,22.8,17,36.9c4,34.4-19.2,65.6-53.3,72c-34,6.3-67.2-15.3-75.3-49c-0.6-2.6-1.7-4.3-3.9-5.7
		c-4.5-3-8.8-6.2-13.2-9.3c-0.3-0.2-0.6-0.5-1.2-0.9c1.3-0.1,2.4-0.1,3.5-0.2c3.7-0.4,7.5-0.8,11.2-1.3c1.9-0.3,1.9-0.4,1.8-2.5
		c-10.7,2.9-21.7,1.7-32.6,1.6c2.5-1.3,5-2.6,7.5-3.8c9.2-4.7,18.5-9.3,27.7-14c0.4-0.2,0.9-0.7,1.1-1.1
		c4.7-12.8,12.5-23.3,23.6-31.3C100.5,72,100.6,71.9,100.8,71.8z M191.9,123.4c0-30.6-24.9-55.7-55.2-55.9
		c-31.1-0.2-56.4,24.7-56.5,55.6c-0.1,31,24.8,56.2,55.6,56.2C166.9,179.3,191.9,154.4,191.9,123.4z"/>
	<path class="st1" d="M219.7,130.2c0.1-13.2-2.5-26-6.9-38.4c-0.9-2.7-1.7-5.4-2.3-8.2c-1-4.5,0.1-8.5,3-12
		c5.8-7.1,13.2-11.8,21.7-14.8c14.6-5,28.6-3.2,42,4.1c9,4.9,16.6,11.6,23.1,19.4c6,7.1,9,15.5,10.3,24.7
		c1.7,12.2,0.1,24.1-2.7,35.9c-3.5,15-9,29.3-15.1,43.4c-4.5,10.5-9.3,21-13.8,31.5c-4.6,10.7-7.1,22-8.7,33.5
		c-1.4,10.5-1.8,21.1-2.2,31.7c-0.3,8-0.8,16-1.4,24c-0.3,3-1.1,6-2.1,8.8c-2,5.7-5.9,7.7-11.8,6.9c-5.6-0.8-9.5-3.9-12.5-8.4
		c-2.8-4.3-4.5-9.2-6.2-14c-2.4-6.4-4.6-12.9-7.4-19.1c-3.4-7.7-8.7-14.1-16.2-18.2c-5.8-3.2-12.1-4.5-18.6-4.9
		c-9.9-0.5-19.4,0.9-28,6.1c-7,4.3-12.1,10.4-16.1,17.4c-3.9,6.7-6.6,14-9.6,21.1c-1.8,4.2-3.7,8.4-5.8,12.5
		c-0.9,1.7-2.2,3.3-3.6,4.6c-4.9,4.6-12.6,3.9-16.7-1.6c-2.3-3.2-3.4-6.9-4.1-10.6c-1.3-6.7-1.5-13.5-1.8-20.3
		c-0.4-10.5-0.5-21-1.3-31.5c-0.9-12.8-4.4-25.1-9.1-37.1c-1.8-4.5-3.5-9.1-5.3-13.6c-0.3-0.8-0.5-1.7-0.6-2.6
		c-0.4-3.1,1.4-5,4.5-4.4c2.6,0.5,5.2,1.2,7.7,2c7.6,2.6,15.4,5,23.4,6.1c13,1.8,26.1,2.5,38.9-1.3c20.6-6.2,36.6-18.2,47-37.3
		c5.3-9.7,7.9-20.2,8.3-31.2c0-0.7,0.1-1.4,0.1-2.2C219.7,131.7,219.7,130.9,219.7,130.2z"/>
	<path class="st1" d="M191.9,123.4c0,31-25,55.9-56.1,55.9c-30.8,0-55.7-25.1-55.6-56.2c0.1-30.9,25.4-55.8,56.5-55.6
		C166.9,67.7,191.9,92.8,191.9,123.4z M105.9,118.4c0.2,8.8,7.1,18.1,18,19.3c11.4,1.2,21.2-6.4,22.7-17.3
		c1.6-10.9-5.6-21.1-16.3-23.2c-11.5-2.2-20.3,5.3-22.6,11.7c4-4.1,8.6-5,13.1-2.6c3.9,2.1,6.2,6.6,5.3,11c-0.9,4.5-4.5,8-8.8,8.5
		C112.2,126.3,108.2,123.9,105.9,118.4z"/>
	<path class="st0" d="M105.9,118.4c2.4,5.4,6.3,7.9,11.5,7.3c4.3-0.5,8-4,8.8-8.5c0.8-4.4-1.4-8.9-5.3-11c-4.5-2.4-9.1-1.4-13.1,2.6
		c2.3-6.4,11.1-13.9,22.6-11.7c10.7,2.1,17.9,12.3,16.3,23.2c-1.6,10.9-11.4,18.5-22.7,17.3C113,136.6,106.1,127.3,105.9,118.4z"/>
</g>
</svg>
